<?xml version="1.0" encoding="UTF-8" standalone="no"?><!DOCTYPE svg PUBLIC "-//W3C//DTD SVG 1.1//EN" "http://www.w3.org/Graphics/SVG/1.1/DTD/svg11.dtd"><svg width="193" height="161" viewBox="0 0 193 161" xmlns="http://www.w3.org/2000/svg" xmlns:xlink="http://www.w3.org/1999/xlink"><svg viewBox="13.83 12.78 126.37 164.67" width="122.37" height="160.67" id="prp" xmlns="http://www.w3.org/2000/svg"><defs><path d="M136.2 89.44c0 36.29-26.96 65.75-60.18 65.75s-60.19-29.46-60.19-65.75c0-36.28 26.97-65.74 60.19-65.74s60.18 29.46 60.18 65.74z" id="ab45tOL6el1"/><path d="M80.29 55.07l-.39-.25-3.75.87v-3.23l-.13-.08 12.82-10.05 4.57 2.9-13.12 9.84zm14.09-10.04l-5.8-3.25 3.69-2.59 5.8 3.49-3.69 2.35z" id="abXqK8ixxk"/><path d="M85.21 35.18H73.25v29.49h20.81V43.12h3.12v24.96H70.13v-36.3h15.08v3.4zm2.09 5.97v-9.37l9.88 9.37H87.3z" id="ad10DNYjRX"/><text id="absof1TedH" x="136.2" y="180.19" font-size="85" font-family="Open Sans" font-weight="700" font-style="italic" letter-spacing="0" alignment-baseline="before-edge" transform="translate(-120.37 -165.407)" style="line-height:100%" dominant-baseline="text-before-edge"><tspan x="136.2" dy="0em" alignment-baseline="before-edge" dominant-baseline="text-before-edge">P</tspan></text><style id="aopensans700italic"/><text id="aaiFAmEx" x="125.09" y="221.85" font-size="85" font-family="Open Sans" letter-spacing="0" alignment-baseline="before-edge" transform="rotate(12 911.678 -201.434)" style="line-height:100%" dominant-baseline="text-before-edge"><tspan x="125.09" dy="0em" alignment-baseline="before-edge" dominant-baseline="text-before-edge">R</tspan></text><style id="aopensansnormalnormal"/><text id="aeUBvR8eNR" x="136.2" y="180.19" font-size="85" font-family="Open Sans" font-weight="700" font-style="italic" letter-spacing="0" alignment-baseline="before-edge" transform="translate(-49.297 -141)" style="line-height:100%" dominant-baseline="text-before-edge"><tspan x="136.2" dy="0em" alignment-baseline="before-edge" dominant-baseline="text-before-edge">P</tspan></text></defs><use xlink:href="#ab45tOL6el1" fill="#54baf8"/><use xlink:href="#ab45tOL6el1" fill-opacity="0" stroke="#0c2c69" stroke-width="2"/><use xlink:href="#abXqK8ixxk" fill-opacity="0" stroke="#242e6c" stroke-width="2"/><use xlink:href="#ad10DNYjRX" fill="#052457"/><use xlink:href="#absof1TedH" fill="#046c10" id="ag6ix2PgmqL"/><use xlink:href="#aaiFAmEx" fill="#052457" id="ac3kJ3oVM9D"/><g id="aqVO3zzVWH"><use xlink:href="#aeUBvR8eNR" fill="#046c10"/></g></svg><svg viewBox="13.83 12.78 126.37 164.67" width="70.28" height="92" id="prp-sm" x="122.37" xmlns="http://www.w3.org/2000/svg"><defs><path d="M136.2 89.44c0 36.29-26.96 65.75-60.18 65.75s-60.19-29.46-60.19-65.75c0-36.28 26.97-65.74 60.19-65.74s60.18 29.46 60.18 65.74z" id="bc1esWep69"/><text id="ba118KVUO6X" x="125.09" y="221.85" font-size="85" font-family="Open Sans" letter-spacing="0" alignment-baseline="before-edge" transform="rotate(12 911.678 -201.434)" style="line-height:100%" dominant-baseline="text-before-edge"><tspan x="125.09" dy="0em" alignment-baseline="before-edge" dominant-baseline="text-before-edge">R</tspan></text><style id="bopensansnormalnormal"/><text id="bb2JiPRHWcv" x="136.2" y="180.19" font-size="85" font-family="Open Sans" font-weight="700" font-style="italic" letter-spacing="0" alignment-baseline="before-edge" transform="translate(-120.37 -165.407)" style="line-height:100%" dominant-baseline="text-before-edge"><tspan x="136.2" dy="0em" alignment-baseline="before-edge" dominant-baseline="text-before-edge">P</tspan></text><style id="bopensans700italic"/><text id="bf5WNQxsOrO" x="136.2" y="180.19" font-size="85" font-family="Open Sans" font-weight="700" font-style="italic" letter-spacing="0" alignment-baseline="before-edge" transform="translate(-49.297 -141)" style="line-height:100%" dominant-baseline="text-before-edge"><tspan x="136.2" dy="0em" alignment-baseline="before-edge" dominant-baseline="text-before-edge">P</tspan></text><path d="M86.11 34.32H74.15v29.49h20.8V42.26h3.12v24.95H71.03v-36.3h15.08v3.41zm2.08 5.96v-9.37l9.88 9.37h-9.88z" id="bb7xVQg3VuZ"/><path d="M80.29 55.07l-.39-.25-3.75.87v-3.23l-.13-.08 12.82-10.05 4.57 2.9-13.12 9.84zm14.09-10.04l-5.8-3.25 3.69-2.59 5.8 3.49-3.69 2.35z" id="bc16kHSKQna"/></defs><use xlink:href="#bc1esWep69" fill="#54baf8"/><use xlink:href="#bc1esWep69" fill-opacity="0" stroke="#0c2c69" stroke-width="2"/><use xlink:href="#ba118KVUO6X" fill="#052457" id="bb2P8ydFebn"/><use xlink:href="#bb2JiPRHWcv" fill="#046c10" id="bc4tjyXGGI"/><use xlink:href="#bf5WNQxsOrO" fill="#046c10" id="ba4CuUKGnrx"/><use xlink:href="#bb7xVQg3VuZ" fill="#052457"/><g><use xlink:href="#bc16kHSKQna" fill-opacity="0" stroke="#242e6c" stroke-width="2"/></g></svg><svg viewBox="13.83 12.78 126.37 164.67" width="32.34" height="42" id="prp-xs" x="122.37" y="92" xmlns="http://www.w3.org/2000/svg"><defs><path d="M136.2 89.44c0 36.29-26.96 65.75-60.18 65.75s-60.19-29.46-60.19-65.75c0-36.28 26.97-65.74 60.19-65.74s60.18 29.46 60.18 65.74z" id="cc1esWep69"/><text id="ca118KVUO6X" x="125.09" y="221.85" font-size="85" font-family="Open Sans" letter-spacing="0" alignment-baseline="before-edge" transform="rotate(12 911.678 -201.434)" style="line-height:100%" dominant-baseline="text-before-edge"><tspan x="125.09" dy="0em" alignment-baseline="before-edge" dominant-baseline="text-before-edge">R</tspan></text><style id="copensansnormalnormal"/><text id="cb2JiPRHWcv" x="136.2" y="180.19" font-size="85" font-family="Open Sans" font-weight="700" font-style="italic" letter-spacing="0" alignment-baseline="before-edge" transform="translate(-120.37 -165.407)" style="line-height:100%" dominant-baseline="text-before-edge"><tspan x="136.2" dy="0em" alignment-baseline="before-edge" dominant-baseline="text-before-edge">P</tspan></text><style id="copensans700italic"/><text id="cf5WNQxsOrO" x="136.2" y="180.19" font-size="85" font-family="Open Sans" font-weight="700" font-style="italic" letter-spacing="0" alignment-baseline="before-edge" transform="translate(-49.297 -141)" style="line-height:100%" dominant-baseline="text-before-edge"><tspan x="136.2" dy="0em" alignment-baseline="before-edge" dominant-baseline="text-before-edge">P</tspan></text><path d="M86.11 34.32H74.15v29.49h20.8V42.26h3.12v24.95H71.03v-36.3h15.08v3.41zm2.08 5.96v-9.37l9.88 9.37h-9.88z" id="cb7xVQg3VuZ"/><path d="M80.29 55.07l-.39-.25-3.75.87v-3.23l-.13-.08 12.82-10.05 4.57 2.9-13.12 9.84zm14.09-10.04l-5.8-3.25 3.69-2.59 5.8 3.49-3.69 2.35z" id="cc16kHSKQna"/></defs><use xlink:href="#cc1esWep69" fill="#54baf8"/><use xlink:href="#cc1esWep69" fill-opacity="0" stroke="#0c2c69" stroke-width="2"/><use xlink:href="#ca118KVUO6X" fill="#052457" id="cb2P8ydFebn"/><use xlink:href="#cb2JiPRHWcv" fill="#046c10" id="cc4tjyXGGI"/><use xlink:href="#cf5WNQxsOrO" fill="#046c10" id="ca4CuUKGnrx"/><use xlink:href="#cb7xVQg3VuZ" fill="#052457"/><g><use xlink:href="#cc16kHSKQna" fill-opacity="0" stroke="#242e6c" stroke-width="2"/></g></svg></svg>