<?xml version="1.0" encoding="utf-8"?><!DOCTYPE svg PUBLIC "-//W3C//DTD SVG 1.1//EN" "http://www.w3.org/Graphics/SVG/1.1/DTD/svg11.dtd"><svg width="193" height="161" viewBox="0 0 193 161" xmlns="http://www.w3.org/2000/svg" xmlns:xlink="http://www.w3.org/1999/xlink"><svg id="facebook" data-name="Layer 1" width="23.23" height="44.01" viewBox="-1 -1 23.23 44.01" x="122.37" y="92" xmlns="http://www.w3.org/2000/svg"><defs><style>.acls-1{fill:#fff}</style></defs><path class="acls-1" d="M21.23.31V7H17.4a3.55 3.55 0 0 0-2.85.91 4.26 4.26 0 0 0-.74 2.72v4.77H21l-1 7.47h-6.19V42H6.27V22.85H0v-7.47h6.27V9.85q0-4.69 2.55-7.28A9 9 0 0 1 15.63 0a39.57 39.57 0 0 1 5.6.31z"/></svg><svg viewBox="13.83 12.78 126.37 164.67" width="122.37" height="160.67" id="prp" xmlns="http://www.w3.org/2000/svg"><defs><path d="M136.2 89.44c0 36.29-26.96 65.75-60.18 65.75s-60.19-29.46-60.19-65.75c0-36.28 26.97-65.74 60.19-65.74s60.18 29.46 60.18 65.74z" id="bb45tOL6el1"/><path d="M80.29 55.07l-.39-.25-3.75.87v-3.23l-.13-.08 12.82-10.05 4.57 2.9-13.12 9.84zm14.09-10.04l-5.8-3.25 3.69-2.59 5.8 3.49-3.69 2.35z" id="bbXqK8ixxk"/><path d="M85.21 35.18H73.25v29.49h20.81V43.12h3.12v24.96H70.13v-36.3h15.08v3.4zm2.09 5.97v-9.37l9.88 9.37H87.3z" id="bd10DNYjRX"/><text id="bbsof1TedH" x="136.2" y="180.19" font-size="85" font-family="Open Sans" font-weight="700" font-style="italic" letter-spacing="0" alignment-baseline="before-edge" transform="translate(-120.37 -165.407)" style="line-height:100%" dominant-baseline="text-before-edge"><tspan x="136.2" dy="0em" alignment-baseline="before-edge" dominant-baseline="text-before-edge">P</tspan></text><style id="bopensans700italic"/><text id="baiFAmEx" x="125.09" y="221.85" font-size="85" font-family="Open Sans" letter-spacing="0" alignment-baseline="before-edge" transform="rotate(12 911.678 -201.434)" style="line-height:100%" dominant-baseline="text-before-edge"><tspan x="125.09" dy="0em" alignment-baseline="before-edge" dominant-baseline="text-before-edge">R</tspan></text><style id="bopensansnormalnormal"/><text id="beUBvR8eNR" x="136.2" y="180.19" font-size="85" font-family="Open Sans" font-weight="700" font-style="italic" letter-spacing="0" alignment-baseline="before-edge" transform="translate(-49.297 -141)" style="line-height:100%" dominant-baseline="text-before-edge"><tspan x="136.2" dy="0em" alignment-baseline="before-edge" dominant-baseline="text-before-edge">P</tspan></text></defs><use xlink:href="#bb45tOL6el1" fill="#54baf8"/><use xlink:href="#bb45tOL6el1" fill-opacity="0" stroke="#0c2c69" stroke-width="2"/><use xlink:href="#bbXqK8ixxk" fill-opacity="0" stroke="#242e6c" stroke-width="2"/><use xlink:href="#bd10DNYjRX" fill="#052457"/><use xlink:href="#bbsof1TedH" fill="#046c10" id="bg6ix2PgmqL"/><use xlink:href="#baiFAmEx" fill="#052457" id="bc3kJ3oVM9D"/><g id="bqVO3zzVWH"><use xlink:href="#beUBvR8eNR" fill="#046c10"/></g></svg><svg viewBox="13.83 12.78 126.37 164.67" width="70.28" height="92" id="prp-sm" x="122.37" xmlns="http://www.w3.org/2000/svg"><defs><path d="M136.2 89.44c0 36.29-26.96 65.75-60.18 65.75s-60.19-29.46-60.19-65.75c0-36.28 26.97-65.74 60.19-65.74s60.18 29.46 60.18 65.74z" id="cc1esWep69"/><text id="ca118KVUO6X" x="125.09" y="221.85" font-size="85" font-family="Open Sans" letter-spacing="0" alignment-baseline="before-edge" transform="rotate(12 911.678 -201.434)" style="line-height:100%" dominant-baseline="text-before-edge"><tspan x="125.09" dy="0em" alignment-baseline="before-edge" dominant-baseline="text-before-edge">R</tspan></text><style id="copensansnormalnormal"/><text id="cb2JiPRHWcv" x="136.2" y="180.19" font-size="85" font-family="Open Sans" font-weight="700" font-style="italic" letter-spacing="0" alignment-baseline="before-edge" transform="translate(-120.37 -165.407)" style="line-height:100%" dominant-baseline="text-before-edge"><tspan x="136.2" dy="0em" alignment-baseline="before-edge" dominant-baseline="text-before-edge">P</tspan></text><style id="copensans700italic"/><text id="cf5WNQxsOrO" x="136.2" y="180.19" font-size="85" font-family="Open Sans" font-weight="700" font-style="italic" letter-spacing="0" alignment-baseline="before-edge" transform="translate(-49.297 -141)" style="line-height:100%" dominant-baseline="text-before-edge"><tspan x="136.2" dy="0em" alignment-baseline="before-edge" dominant-baseline="text-before-edge">P</tspan></text><path d="M86.11 34.32H74.15v29.49h20.8V42.26h3.12v24.95H71.03v-36.3h15.08v3.41zm2.08 5.96v-9.37l9.88 9.37h-9.88z" id="cb7xVQg3VuZ"/><path d="M80.29 55.07l-.39-.25-3.75.87v-3.23l-.13-.08 12.82-10.05 4.57 2.9-13.12 9.84zm14.09-10.04l-5.8-3.25 3.69-2.59 5.8 3.49-3.69 2.35z" id="cc16kHSKQna"/></defs><use xlink:href="#cc1esWep69" fill="#54baf8"/><use xlink:href="#cc1esWep69" fill-opacity="0" stroke="#0c2c69" stroke-width="2"/><use xlink:href="#ca118KVUO6X" fill="#052457" id="cb2P8ydFebn"/><use xlink:href="#cb2JiPRHWcv" fill="#046c10" id="cc4tjyXGGI"/><use xlink:href="#cf5WNQxsOrO" fill="#046c10" id="ca4CuUKGnrx"/><use xlink:href="#cb7xVQg3VuZ" fill="#052457"/><g><use xlink:href="#cc16kHSKQna" fill-opacity="0" stroke="#242e6c" stroke-width="2"/></g></svg><svg viewBox="13.83 12.78 126.37 164.67" width="32.34" height="42" id="prp-xs" x="145.6" y="92" xmlns="http://www.w3.org/2000/svg"><defs><path d="M136.2 89.44c0 36.29-26.96 65.75-60.18 65.75s-60.19-29.46-60.19-65.75c0-36.28 26.97-65.74 60.19-65.74s60.18 29.46 60.18 65.74z" id="dc1esWep69"/><text id="da118KVUO6X" x="125.09" y="221.85" font-size="85" font-family="Open Sans" letter-spacing="0" alignment-baseline="before-edge" transform="rotate(12 911.678 -201.434)" style="line-height:100%" dominant-baseline="text-before-edge"><tspan x="125.09" dy="0em" alignment-baseline="before-edge" dominant-baseline="text-before-edge">R</tspan></text><style id="dopensansnormalnormal"/><text id="db2JiPRHWcv" x="136.2" y="180.19" font-size="85" font-family="Open Sans" font-weight="700" font-style="italic" letter-spacing="0" alignment-baseline="before-edge" transform="translate(-120.37 -165.407)" style="line-height:100%" dominant-baseline="text-before-edge"><tspan x="136.2" dy="0em" alignment-baseline="before-edge" dominant-baseline="text-before-edge">P</tspan></text><style id="dopensans700italic"/><text id="df5WNQxsOrO" x="136.2" y="180.19" font-size="85" font-family="Open Sans" font-weight="700" font-style="italic" letter-spacing="0" alignment-baseline="before-edge" transform="translate(-49.297 -141)" style="line-height:100%" dominant-baseline="text-before-edge"><tspan x="136.2" dy="0em" alignment-baseline="before-edge" dominant-baseline="text-before-edge">P</tspan></text><path d="M86.11 34.32H74.15v29.49h20.8V42.26h3.12v24.95H71.03v-36.3h15.08v3.41zm2.08 5.96v-9.37l9.88 9.37h-9.88z" id="db7xVQg3VuZ"/><path d="M80.29 55.07l-.39-.25-3.75.87v-3.23l-.13-.08 12.82-10.05 4.57 2.9-13.12 9.84zm14.09-10.04l-5.8-3.25 3.69-2.59 5.8 3.49-3.69 2.35z" id="dc16kHSKQna"/></defs><use xlink:href="#dc1esWep69" fill="#54baf8"/><use xlink:href="#dc1esWep69" fill-opacity="0" stroke="#0c2c69" stroke-width="2"/><use xlink:href="#da118KVUO6X" fill="#052457" id="db2P8ydFebn"/><use xlink:href="#db2JiPRHWcv" fill="#046c10" id="dc4tjyXGGI"/><use xlink:href="#df5WNQxsOrO" fill="#046c10" id="da4CuUKGnrx"/><use xlink:href="#db7xVQg3VuZ" fill="#052457"/><g><use xlink:href="#dc16kHSKQna" fill-opacity="0" stroke="#242e6c" stroke-width="2"/></g></svg></svg>